<mxfile host="app.diagrams.net" agent="Mozilla/5.0 (Windows NT 10.0; Win64; x64) AppleWebKit/537.36 (KHTML, like Gecko) Chrome/137.0.0.0 Safari/537.36" version="27.1.1">
  <diagram name="‫עמוד-1‬" id="LOa2TSwk760_7nA3Xr0g">
    <mxGraphModel dx="1125" dy="2525" grid="0" gridSize="10" guides="1" tooltips="1" connect="1" arrows="1" fold="1" page="0" pageScale="1" pageWidth="827" pageHeight="1169" background="none" math="0" shadow="0">
      <root>
        <mxCell id="0" />
        <mxCell id="1" parent="0" />
        <mxCell id="ni58W3g7qlgSycT5b25J-1" style="edgeStyle=orthogonalEdgeStyle;rounded=0;orthogonalLoop=1;jettySize=auto;html=1;exitX=1;exitY=1;exitDx=0;exitDy=0;entryX=0;entryY=0.5;entryDx=0;entryDy=0;curved=1;" edge="1" parent="1" source="ni58W3g7qlgSycT5b25J-9" target="ni58W3g7qlgSycT5b25J-15">
          <mxGeometry relative="1" as="geometry" />
        </mxCell>
        <mxCell id="ni58W3g7qlgSycT5b25J-2" value="=" style="edgeLabel;html=1;align=center;verticalAlign=middle;resizable=0;points=[];" vertex="1" connectable="0" parent="ni58W3g7qlgSycT5b25J-1">
          <mxGeometry x="-0.0426" relative="1" as="geometry">
            <mxPoint as="offset" />
          </mxGeometry>
        </mxCell>
        <mxCell id="ni58W3g7qlgSycT5b25J-3" style="edgeStyle=orthogonalEdgeStyle;rounded=0;orthogonalLoop=1;jettySize=auto;html=1;exitX=1;exitY=1;exitDx=0;exitDy=0;entryX=0;entryY=0;entryDx=0;entryDy=0;curved=1;" edge="1" parent="1" source="ni58W3g7qlgSycT5b25J-9" target="ni58W3g7qlgSycT5b25J-21">
          <mxGeometry relative="1" as="geometry">
            <Array as="points">
              <mxPoint x="132.33334350585938" y="423.33331298828125" />
              <mxPoint x="132.33334350585938" y="531.3333129882812" />
            </Array>
          </mxGeometry>
        </mxCell>
        <mxCell id="ni58W3g7qlgSycT5b25J-4" value="+" style="edgeLabel;html=1;align=center;verticalAlign=middle;resizable=0;points=[];" vertex="1" connectable="0" parent="ni58W3g7qlgSycT5b25J-3">
          <mxGeometry x="0.0019" y="-1" relative="1" as="geometry">
            <mxPoint as="offset" />
          </mxGeometry>
        </mxCell>
        <mxCell id="ni58W3g7qlgSycT5b25J-5" style="edgeStyle=orthogonalEdgeStyle;rounded=0;orthogonalLoop=1;jettySize=auto;html=1;exitX=1;exitY=1;exitDx=0;exitDy=0;entryX=0.5;entryY=0;entryDx=0;entryDy=0;curved=1;" edge="1" parent="1" source="ni58W3g7qlgSycT5b25J-9" target="ni58W3g7qlgSycT5b25J-28">
          <mxGeometry relative="1" as="geometry" />
        </mxCell>
        <mxCell id="ni58W3g7qlgSycT5b25J-6" value="-" style="edgeLabel;html=1;align=center;verticalAlign=middle;resizable=0;points=[];" vertex="1" connectable="0" parent="ni58W3g7qlgSycT5b25J-5">
          <mxGeometry x="-0.112" y="2" relative="1" as="geometry">
            <mxPoint as="offset" />
          </mxGeometry>
        </mxCell>
        <mxCell id="ni58W3g7qlgSycT5b25J-7" style="edgeStyle=orthogonalEdgeStyle;rounded=0;orthogonalLoop=1;jettySize=auto;html=1;exitX=1;exitY=1;exitDx=0;exitDy=0;entryX=0;entryY=0.5;entryDx=0;entryDy=0;curved=1;" edge="1" parent="1" source="ni58W3g7qlgSycT5b25J-9" target="ni58W3g7qlgSycT5b25J-33">
          <mxGeometry relative="1" as="geometry" />
        </mxCell>
        <mxCell id="ni58W3g7qlgSycT5b25J-8" value="/" style="edgeLabel;html=1;align=center;verticalAlign=middle;resizable=0;points=[];" vertex="1" connectable="0" parent="ni58W3g7qlgSycT5b25J-7">
          <mxGeometry x="0.0879" y="3" relative="1" as="geometry">
            <mxPoint as="offset" />
          </mxGeometry>
        </mxCell>
        <mxCell id="ni58W3g7qlgSycT5b25J-36" style="edgeStyle=orthogonalEdgeStyle;rounded=0;orthogonalLoop=1;jettySize=auto;html=1;exitX=1;exitY=1;exitDx=0;exitDy=0;entryX=0;entryY=0.5;entryDx=0;entryDy=0;curved=1;" edge="1" parent="1" source="ni58W3g7qlgSycT5b25J-9" target="ni58W3g7qlgSycT5b25J-35">
          <mxGeometry relative="1" as="geometry" />
        </mxCell>
        <mxCell id="ni58W3g7qlgSycT5b25J-37" value="%" style="edgeLabel;html=1;align=center;verticalAlign=middle;resizable=0;points=[];" vertex="1" connectable="0" parent="ni58W3g7qlgSycT5b25J-36">
          <mxGeometry x="0.1042" y="-2" relative="1" as="geometry">
            <mxPoint as="offset" />
          </mxGeometry>
        </mxCell>
        <mxCell id="ni58W3g7qlgSycT5b25J-41" style="edgeStyle=orthogonalEdgeStyle;rounded=0;orthogonalLoop=1;jettySize=auto;html=1;exitX=1;exitY=1;exitDx=0;exitDy=0;entryX=0.5;entryY=0;entryDx=0;entryDy=0;curved=1;" edge="1" parent="1" source="ni58W3g7qlgSycT5b25J-9" target="ni58W3g7qlgSycT5b25J-40">
          <mxGeometry relative="1" as="geometry" />
        </mxCell>
        <mxCell id="ni58W3g7qlgSycT5b25J-42" value="*" style="edgeLabel;html=1;align=center;verticalAlign=middle;resizable=0;points=[];" vertex="1" connectable="0" parent="ni58W3g7qlgSycT5b25J-41">
          <mxGeometry x="0.0874" y="1" relative="1" as="geometry">
            <mxPoint as="offset" />
          </mxGeometry>
        </mxCell>
        <mxCell id="ni58W3g7qlgSycT5b25J-55" style="edgeStyle=orthogonalEdgeStyle;rounded=0;orthogonalLoop=1;jettySize=auto;html=1;exitX=0;exitY=1;exitDx=0;exitDy=0;entryX=1;entryY=0;entryDx=0;entryDy=0;curved=1;" edge="1" parent="1" source="ni58W3g7qlgSycT5b25J-9" target="ni58W3g7qlgSycT5b25J-52">
          <mxGeometry relative="1" as="geometry" />
        </mxCell>
        <mxCell id="ni58W3g7qlgSycT5b25J-56" value="&amp;amp;" style="edgeLabel;html=1;align=center;verticalAlign=middle;resizable=0;points=[];" vertex="1" connectable="0" parent="ni58W3g7qlgSycT5b25J-55">
          <mxGeometry x="0.2518" y="-6" relative="1" as="geometry">
            <mxPoint as="offset" />
          </mxGeometry>
        </mxCell>
        <mxCell id="ni58W3g7qlgSycT5b25J-61" style="edgeStyle=orthogonalEdgeStyle;rounded=0;orthogonalLoop=1;jettySize=auto;html=1;exitX=0;exitY=1;exitDx=0;exitDy=0;entryX=1;entryY=0;entryDx=0;entryDy=0;curved=1;" edge="1" parent="1" source="ni58W3g7qlgSycT5b25J-9" target="ni58W3g7qlgSycT5b25J-60">
          <mxGeometry relative="1" as="geometry" />
        </mxCell>
        <mxCell id="ni58W3g7qlgSycT5b25J-62" value="(" style="edgeLabel;html=1;align=center;verticalAlign=middle;resizable=0;points=[];" vertex="1" connectable="0" parent="ni58W3g7qlgSycT5b25J-61">
          <mxGeometry x="0.1989" y="3" relative="1" as="geometry">
            <mxPoint as="offset" />
          </mxGeometry>
        </mxCell>
        <mxCell id="ni58W3g7qlgSycT5b25J-69" style="edgeStyle=orthogonalEdgeStyle;rounded=0;orthogonalLoop=1;jettySize=auto;html=1;exitX=0;exitY=0.5;exitDx=0;exitDy=0;entryX=1;entryY=1;entryDx=0;entryDy=0;curved=1;" edge="1" parent="1" source="ni58W3g7qlgSycT5b25J-9" target="ni58W3g7qlgSycT5b25J-66">
          <mxGeometry relative="1" as="geometry" />
        </mxCell>
        <mxCell id="ni58W3g7qlgSycT5b25J-70" value="[" style="edgeLabel;html=1;align=center;verticalAlign=middle;resizable=0;points=[];" vertex="1" connectable="0" parent="ni58W3g7qlgSycT5b25J-69">
          <mxGeometry x="-0.0767" y="-5" relative="1" as="geometry">
            <mxPoint as="offset" />
          </mxGeometry>
        </mxCell>
        <mxCell id="ni58W3g7qlgSycT5b25J-72" style="edgeStyle=orthogonalEdgeStyle;rounded=0;orthogonalLoop=1;jettySize=auto;html=1;exitX=0;exitY=0.5;exitDx=0;exitDy=0;entryX=1;entryY=1;entryDx=0;entryDy=0;curved=1;" edge="1" parent="1" source="ni58W3g7qlgSycT5b25J-9" target="ni58W3g7qlgSycT5b25J-71">
          <mxGeometry relative="1" as="geometry">
            <Array as="points">
              <mxPoint x="-48" y="395" />
              <mxPoint x="-48" y="338" />
            </Array>
          </mxGeometry>
        </mxCell>
        <mxCell id="ni58W3g7qlgSycT5b25J-73" value="]" style="edgeLabel;html=1;align=center;verticalAlign=middle;resizable=0;points=[];" vertex="1" connectable="0" parent="ni58W3g7qlgSycT5b25J-72">
          <mxGeometry x="0.2385" y="-4" relative="1" as="geometry">
            <mxPoint y="-1" as="offset" />
          </mxGeometry>
        </mxCell>
        <mxCell id="ni58W3g7qlgSycT5b25J-75" style="edgeStyle=orthogonalEdgeStyle;rounded=0;orthogonalLoop=1;jettySize=auto;html=1;exitX=0;exitY=0.5;exitDx=0;exitDy=0;entryX=1;entryY=0.5;entryDx=0;entryDy=0;curved=1;" edge="1" parent="1" source="ni58W3g7qlgSycT5b25J-9" target="ni58W3g7qlgSycT5b25J-74">
          <mxGeometry relative="1" as="geometry" />
        </mxCell>
        <mxCell id="ni58W3g7qlgSycT5b25J-77" value="{" style="edgeLabel;html=1;align=center;verticalAlign=middle;resizable=0;points=[];" vertex="1" connectable="0" parent="ni58W3g7qlgSycT5b25J-75">
          <mxGeometry x="0.5185" y="15" relative="1" as="geometry">
            <mxPoint as="offset" />
          </mxGeometry>
        </mxCell>
        <mxCell id="ni58W3g7qlgSycT5b25J-79" style="edgeStyle=orthogonalEdgeStyle;rounded=0;orthogonalLoop=1;jettySize=auto;html=1;exitX=0;exitY=0.5;exitDx=0;exitDy=0;entryX=0.5;entryY=1;entryDx=0;entryDy=0;curved=1;" edge="1" parent="1" source="ni58W3g7qlgSycT5b25J-9" target="ni58W3g7qlgSycT5b25J-78">
          <mxGeometry relative="1" as="geometry">
            <Array as="points">
              <mxPoint x="-45" y="395" />
              <mxPoint x="-45" y="239" />
            </Array>
          </mxGeometry>
        </mxCell>
        <mxCell id="ni58W3g7qlgSycT5b25J-81" value="}" style="edgeLabel;html=1;align=center;verticalAlign=middle;resizable=0;points=[];" vertex="1" connectable="0" parent="ni58W3g7qlgSycT5b25J-79">
          <mxGeometry x="0.272" y="1" relative="1" as="geometry">
            <mxPoint y="1" as="offset" />
          </mxGeometry>
        </mxCell>
        <mxCell id="ni58W3g7qlgSycT5b25J-83" style="edgeStyle=orthogonalEdgeStyle;rounded=0;orthogonalLoop=1;jettySize=auto;html=1;exitX=1;exitY=0.5;exitDx=0;exitDy=0;curved=1;entryX=1;entryY=0.5;entryDx=0;entryDy=0;" edge="1" parent="1" source="ni58W3g7qlgSycT5b25J-9" target="ni58W3g7qlgSycT5b25J-9">
          <mxGeometry relative="1" as="geometry">
            <mxPoint x="131.151533647017" y="334.27272727272725" as="targetPoint" />
            <Array as="points">
              <mxPoint x="152" y="395" />
              <mxPoint x="152" y="335" />
              <mxPoint x="113" y="335" />
            </Array>
          </mxGeometry>
        </mxCell>
        <mxCell id="ni58W3g7qlgSycT5b25J-84" value="new line&lt;div&gt;space&lt;/div&gt;" style="edgeLabel;html=1;align=center;verticalAlign=middle;resizable=0;points=[];" vertex="1" connectable="0" parent="ni58W3g7qlgSycT5b25J-83">
          <mxGeometry x="0.1736" y="1" relative="1" as="geometry">
            <mxPoint as="offset" />
          </mxGeometry>
        </mxCell>
        <mxCell id="ni58W3g7qlgSycT5b25J-85" style="edgeStyle=orthogonalEdgeStyle;rounded=0;orthogonalLoop=1;jettySize=auto;html=1;exitX=0;exitY=0;exitDx=0;exitDy=0;entryX=0.5;entryY=1;entryDx=0;entryDy=0;curved=1;" edge="1" parent="1" source="ni58W3g7qlgSycT5b25J-9" target="ni58W3g7qlgSycT5b25J-82">
          <mxGeometry relative="1" as="geometry" />
        </mxCell>
        <mxCell id="ni58W3g7qlgSycT5b25J-86" value="|" style="edgeLabel;html=1;align=center;verticalAlign=middle;resizable=0;points=[];" vertex="1" connectable="0" parent="ni58W3g7qlgSycT5b25J-85">
          <mxGeometry x="0.5299" y="-2" relative="1" as="geometry">
            <mxPoint as="offset" />
          </mxGeometry>
        </mxCell>
        <mxCell id="ni58W3g7qlgSycT5b25J-93" style="edgeStyle=orthogonalEdgeStyle;rounded=0;orthogonalLoop=1;jettySize=auto;html=1;exitX=0;exitY=0;exitDx=0;exitDy=0;entryX=0;entryY=1;entryDx=0;entryDy=0;curved=1;" edge="1" parent="1" source="ni58W3g7qlgSycT5b25J-9" target="ni58W3g7qlgSycT5b25J-92">
          <mxGeometry relative="1" as="geometry">
            <Array as="points">
              <mxPoint x="-24" y="367" />
            </Array>
          </mxGeometry>
        </mxCell>
        <mxCell id="ni58W3g7qlgSycT5b25J-94" value="?" style="edgeLabel;html=1;align=center;verticalAlign=middle;resizable=0;points=[];" vertex="1" connectable="0" parent="ni58W3g7qlgSycT5b25J-93">
          <mxGeometry x="0.4905" y="-4" relative="1" as="geometry">
            <mxPoint as="offset" />
          </mxGeometry>
        </mxCell>
        <mxCell id="ni58W3g7qlgSycT5b25J-97" style="edgeStyle=orthogonalEdgeStyle;rounded=0;orthogonalLoop=1;jettySize=auto;html=1;exitX=0;exitY=0;exitDx=0;exitDy=0;entryX=0;entryY=1;entryDx=0;entryDy=0;curved=1;" edge="1" parent="1" source="ni58W3g7qlgSycT5b25J-9" target="ni58W3g7qlgSycT5b25J-95">
          <mxGeometry relative="1" as="geometry">
            <Array as="points">
              <mxPoint x="45" y="336" />
              <mxPoint x="11" y="336" />
            </Array>
          </mxGeometry>
        </mxCell>
        <mxCell id="ni58W3g7qlgSycT5b25J-98" value=":" style="edgeLabel;html=1;align=center;verticalAlign=middle;resizable=0;points=[];" vertex="1" connectable="0" parent="ni58W3g7qlgSycT5b25J-97">
          <mxGeometry x="-0.0256" y="5" relative="1" as="geometry">
            <mxPoint as="offset" />
          </mxGeometry>
        </mxCell>
        <mxCell id="ni58W3g7qlgSycT5b25J-111" style="edgeStyle=orthogonalEdgeStyle;rounded=0;orthogonalLoop=1;jettySize=auto;html=1;exitX=0.5;exitY=0;exitDx=0;exitDy=0;entryX=0;entryY=1;entryDx=0;entryDy=0;curved=1;" edge="1" parent="1" source="ni58W3g7qlgSycT5b25J-9" target="ni58W3g7qlgSycT5b25J-110">
          <mxGeometry relative="1" as="geometry" />
        </mxCell>
        <mxCell id="ni58W3g7qlgSycT5b25J-112" value="^" style="edgeLabel;html=1;align=center;verticalAlign=middle;resizable=0;points=[];" vertex="1" connectable="0" parent="ni58W3g7qlgSycT5b25J-111">
          <mxGeometry x="-0.1511" relative="1" as="geometry">
            <mxPoint as="offset" />
          </mxGeometry>
        </mxCell>
        <mxCell id="ni58W3g7qlgSycT5b25J-9" value="q0" style="ellipse;whiteSpace=wrap;html=1;aspect=fixed;" vertex="1" parent="1">
          <mxGeometry x="33.333343505859375" y="355.33331298828125" width="80" height="80" as="geometry" />
        </mxCell>
        <mxCell id="ni58W3g7qlgSycT5b25J-13" style="edgeStyle=orthogonalEdgeStyle;rounded=0;orthogonalLoop=1;jettySize=auto;html=1;exitX=1;exitY=0.5;exitDx=0;exitDy=0;curved=1;" edge="1" parent="1" source="ni58W3g7qlgSycT5b25J-15" target="ni58W3g7qlgSycT5b25J-16">
          <mxGeometry relative="1" as="geometry" />
        </mxCell>
        <mxCell id="ni58W3g7qlgSycT5b25J-14" value="=" style="edgeLabel;html=1;align=center;verticalAlign=middle;resizable=0;points=[];" vertex="1" connectable="0" parent="ni58W3g7qlgSycT5b25J-13">
          <mxGeometry x="-0.1014" y="2" relative="1" as="geometry">
            <mxPoint as="offset" />
          </mxGeometry>
        </mxCell>
        <mxCell id="ni58W3g7qlgSycT5b25J-15" value="q1&lt;div&gt;equal&lt;/div&gt;" style="ellipse;whiteSpace=wrap;html=1;aspect=fixed;shadow=0;fillColor=default;fillStyle=auto;gradientColor=none;strokeColor=#00FF00;" vertex="1" parent="1">
          <mxGeometry x="207.33334350585938" y="422.33331298828125" width="80" height="80" as="geometry" />
        </mxCell>
        <mxCell id="ni58W3g7qlgSycT5b25J-16" value="q2&lt;div&gt;is_equal&lt;/div&gt;" style="ellipse;whiteSpace=wrap;html=1;aspect=fixed;strokeColor=#00FF00;" vertex="1" parent="1">
          <mxGeometry x="339.3333435058594" y="422.33331298828125" width="80" height="80" as="geometry" />
        </mxCell>
        <mxCell id="ni58W3g7qlgSycT5b25J-17" style="edgeStyle=orthogonalEdgeStyle;rounded=0;orthogonalLoop=1;jettySize=auto;html=1;exitX=1;exitY=0.5;exitDx=0;exitDy=0;entryX=0;entryY=0.5;entryDx=0;entryDy=0;curved=1;" edge="1" parent="1" source="ni58W3g7qlgSycT5b25J-21" target="ni58W3g7qlgSycT5b25J-22">
          <mxGeometry relative="1" as="geometry" />
        </mxCell>
        <mxCell id="ni58W3g7qlgSycT5b25J-18" value="=" style="edgeLabel;html=1;align=center;verticalAlign=middle;resizable=0;points=[];" vertex="1" connectable="0" parent="ni58W3g7qlgSycT5b25J-17">
          <mxGeometry x="0.1579" y="-3" relative="1" as="geometry">
            <mxPoint as="offset" />
          </mxGeometry>
        </mxCell>
        <mxCell id="ni58W3g7qlgSycT5b25J-19" style="edgeStyle=orthogonalEdgeStyle;rounded=0;orthogonalLoop=1;jettySize=auto;html=1;exitX=1;exitY=1;exitDx=0;exitDy=0;entryX=0;entryY=0;entryDx=0;entryDy=0;curved=1;" edge="1" parent="1" source="ni58W3g7qlgSycT5b25J-21" target="ni58W3g7qlgSycT5b25J-23">
          <mxGeometry relative="1" as="geometry" />
        </mxCell>
        <mxCell id="ni58W3g7qlgSycT5b25J-20" value="+" style="edgeLabel;html=1;align=center;verticalAlign=middle;resizable=0;points=[];" vertex="1" connectable="0" parent="ni58W3g7qlgSycT5b25J-19">
          <mxGeometry x="-0.2003" y="-8" relative="1" as="geometry">
            <mxPoint as="offset" />
          </mxGeometry>
        </mxCell>
        <mxCell id="ni58W3g7qlgSycT5b25J-21" value="q3&lt;div&gt;plus&lt;/div&gt;" style="ellipse;whiteSpace=wrap;html=1;aspect=fixed;strokeColor=#00FF00;" vertex="1" parent="1">
          <mxGeometry x="156.33334350585938" y="519.3333129882812" width="80" height="80" as="geometry" />
        </mxCell>
        <mxCell id="ni58W3g7qlgSycT5b25J-22" value="q4&lt;div&gt;plus_equal&lt;/div&gt;" style="ellipse;whiteSpace=wrap;html=1;aspect=fixed;strokeColor=#00FF00;" vertex="1" parent="1">
          <mxGeometry x="293.3333435058594" y="519.3333129882812" width="80" height="80" as="geometry" />
        </mxCell>
        <mxCell id="ni58W3g7qlgSycT5b25J-23" value="q5&lt;div&gt;increment&lt;/div&gt;" style="ellipse;whiteSpace=wrap;html=1;aspect=fixed;strokeColor=#00FF00;" vertex="1" parent="1">
          <mxGeometry x="259.3333435058594" y="616.3333129882812" width="80" height="80" as="geometry" />
        </mxCell>
        <mxCell id="ni58W3g7qlgSycT5b25J-24" style="edgeStyle=orthogonalEdgeStyle;rounded=0;orthogonalLoop=1;jettySize=auto;html=1;exitX=1;exitY=1;exitDx=0;exitDy=0;entryX=0.5;entryY=0;entryDx=0;entryDy=0;curved=1;" edge="1" parent="1" source="ni58W3g7qlgSycT5b25J-28" target="ni58W3g7qlgSycT5b25J-29">
          <mxGeometry relative="1" as="geometry" />
        </mxCell>
        <mxCell id="ni58W3g7qlgSycT5b25J-25" value="-" style="edgeLabel;html=1;align=center;verticalAlign=middle;resizable=0;points=[];" vertex="1" connectable="0" parent="ni58W3g7qlgSycT5b25J-24">
          <mxGeometry x="0.3071" y="-11" relative="1" as="geometry">
            <mxPoint as="offset" />
          </mxGeometry>
        </mxCell>
        <mxCell id="ni58W3g7qlgSycT5b25J-26" style="edgeStyle=orthogonalEdgeStyle;rounded=0;orthogonalLoop=1;jettySize=auto;html=1;exitX=0;exitY=1;exitDx=0;exitDy=0;entryX=0.5;entryY=0;entryDx=0;entryDy=0;curved=1;" edge="1" parent="1" source="ni58W3g7qlgSycT5b25J-28" target="ni58W3g7qlgSycT5b25J-30">
          <mxGeometry relative="1" as="geometry" />
        </mxCell>
        <mxCell id="ni58W3g7qlgSycT5b25J-27" value="=" style="edgeLabel;html=1;align=center;verticalAlign=middle;resizable=0;points=[];" vertex="1" connectable="0" parent="ni58W3g7qlgSycT5b25J-26">
          <mxGeometry x="-0.3497" y="-6" relative="1" as="geometry">
            <mxPoint as="offset" />
          </mxGeometry>
        </mxCell>
        <mxCell id="ni58W3g7qlgSycT5b25J-28" value="q6&lt;div&gt;subtraction&lt;/div&gt;" style="ellipse;whiteSpace=wrap;html=1;aspect=fixed;strokeColor=#00FF00;" vertex="1" parent="1">
          <mxGeometry x="44.00334350585938" y="475.00331298828127" width="80" height="80" as="geometry" />
        </mxCell>
        <mxCell id="ni58W3g7qlgSycT5b25J-29" value="q7&lt;div&gt;decrement&lt;/div&gt;" style="ellipse;whiteSpace=wrap;html=1;aspect=fixed;strokeColor=#00FF00;" vertex="1" parent="1">
          <mxGeometry x="105.00334350585938" y="628.0033129882812" width="80" height="80" as="geometry" />
        </mxCell>
        <mxCell id="ni58W3g7qlgSycT5b25J-30" value="q8&lt;div&gt;subtraction_equal&lt;/div&gt;" style="ellipse;whiteSpace=wrap;html=1;aspect=fixed;strokeColor=#00FF00;" vertex="1" parent="1">
          <mxGeometry x="4.003343505859377" y="595.0033129882812" width="80" height="80" as="geometry" />
        </mxCell>
        <mxCell id="ni58W3g7qlgSycT5b25J-31" style="edgeStyle=orthogonalEdgeStyle;rounded=0;orthogonalLoop=1;jettySize=auto;html=1;exitX=1;exitY=0.5;exitDx=0;exitDy=0;curved=1;" edge="1" parent="1" source="ni58W3g7qlgSycT5b25J-33" target="ni58W3g7qlgSycT5b25J-34">
          <mxGeometry relative="1" as="geometry" />
        </mxCell>
        <mxCell id="ni58W3g7qlgSycT5b25J-32" value="=" style="edgeLabel;html=1;align=center;verticalAlign=middle;resizable=0;points=[];" vertex="1" connectable="0" parent="ni58W3g7qlgSycT5b25J-31">
          <mxGeometry x="0.0444" y="1" relative="1" as="geometry">
            <mxPoint as="offset" />
          </mxGeometry>
        </mxCell>
        <mxCell id="ni58W3g7qlgSycT5b25J-33" value="q9&lt;div&gt;division&lt;/div&gt;" style="ellipse;whiteSpace=wrap;html=1;aspect=fixed;strokeColor=#00FF00;" vertex="1" parent="1">
          <mxGeometry x="259.3333435058594" y="331.33331298828125" width="80" height="80" as="geometry" />
        </mxCell>
        <mxCell id="ni58W3g7qlgSycT5b25J-34" value="q10&lt;div&gt;division_equal&lt;/div&gt;" style="ellipse;whiteSpace=wrap;html=1;aspect=fixed;strokeColor=#00FF00;" vertex="1" parent="1">
          <mxGeometry x="400.3333435058594" y="331.33331298828125" width="80" height="80" as="geometry" />
        </mxCell>
        <mxCell id="ni58W3g7qlgSycT5b25J-39" style="edgeStyle=orthogonalEdgeStyle;rounded=0;orthogonalLoop=1;jettySize=auto;html=1;exitX=1;exitY=0.5;exitDx=0;exitDy=0;entryX=0;entryY=0.5;entryDx=0;entryDy=0;curved=1;" edge="1" parent="1" source="ni58W3g7qlgSycT5b25J-35" target="ni58W3g7qlgSycT5b25J-38">
          <mxGeometry relative="1" as="geometry" />
        </mxCell>
        <mxCell id="ni58W3g7qlgSycT5b25J-46" value="=" style="edgeLabel;html=1;align=center;verticalAlign=middle;resizable=0;points=[];" vertex="1" connectable="0" parent="ni58W3g7qlgSycT5b25J-39">
          <mxGeometry x="-0.0891" y="4" relative="1" as="geometry">
            <mxPoint as="offset" />
          </mxGeometry>
        </mxCell>
        <mxCell id="ni58W3g7qlgSycT5b25J-35" value="q11&lt;div&gt;mod&lt;/div&gt;" style="ellipse;whiteSpace=wrap;html=1;aspect=fixed;strokeColor=#00FF00;" vertex="1" parent="1">
          <mxGeometry x="213.32999999999998" y="251.33" width="80" height="80" as="geometry" />
        </mxCell>
        <mxCell id="ni58W3g7qlgSycT5b25J-38" value="q12&lt;div&gt;mod_equal&lt;/div&gt;" style="ellipse;whiteSpace=wrap;html=1;aspect=fixed;strokeColor=#00FF00;" vertex="1" parent="1">
          <mxGeometry x="344" y="251.33" width="80" height="80" as="geometry" />
        </mxCell>
        <mxCell id="ni58W3g7qlgSycT5b25J-44" style="edgeStyle=orthogonalEdgeStyle;rounded=0;orthogonalLoop=1;jettySize=auto;html=1;exitX=0.5;exitY=1;exitDx=0;exitDy=0;entryX=0.5;entryY=0;entryDx=0;entryDy=0;curved=1;" edge="1" parent="1" source="ni58W3g7qlgSycT5b25J-40" target="ni58W3g7qlgSycT5b25J-43">
          <mxGeometry relative="1" as="geometry" />
        </mxCell>
        <mxCell id="ni58W3g7qlgSycT5b25J-45" value="=" style="edgeLabel;html=1;align=center;verticalAlign=middle;resizable=0;points=[];" vertex="1" connectable="0" parent="ni58W3g7qlgSycT5b25J-44">
          <mxGeometry x="0.0082" y="4" relative="1" as="geometry">
            <mxPoint as="offset" />
          </mxGeometry>
        </mxCell>
        <mxCell id="ni58W3g7qlgSycT5b25J-40" value="q13&lt;div&gt;star&lt;/div&gt;" style="ellipse;whiteSpace=wrap;html=1;aspect=fixed;strokeColor=#00FF00;" vertex="1" parent="1">
          <mxGeometry x="-42" y="475" width="80" height="80" as="geometry" />
        </mxCell>
        <mxCell id="ni58W3g7qlgSycT5b25J-43" value="q14&lt;div&gt;star_equal&lt;/div&gt;" style="ellipse;whiteSpace=wrap;html=1;aspect=fixed;strokeColor=#00FF00;" vertex="1" parent="1">
          <mxGeometry x="-97" y="595" width="80" height="80" as="geometry" />
        </mxCell>
        <mxCell id="ni58W3g7qlgSycT5b25J-47" value="q15&lt;div&gt;semicolon&lt;/div&gt;" style="ellipse;whiteSpace=wrap;html=1;aspect=fixed;strokeColor=#00FF00;" vertex="1" parent="1">
          <mxGeometry x="-131" y="506" width="80" height="80" as="geometry" />
        </mxCell>
        <mxCell id="ni58W3g7qlgSycT5b25J-49" style="edgeStyle=orthogonalEdgeStyle;rounded=0;orthogonalLoop=1;jettySize=auto;html=1;exitX=0;exitY=1;exitDx=0;exitDy=0;entryX=0.97;entryY=0.381;entryDx=0;entryDy=0;entryPerimeter=0;curved=1;" edge="1" parent="1" source="ni58W3g7qlgSycT5b25J-9" target="ni58W3g7qlgSycT5b25J-47">
          <mxGeometry relative="1" as="geometry" />
        </mxCell>
        <mxCell id="ni58W3g7qlgSycT5b25J-54" value=";" style="edgeLabel;html=1;align=center;verticalAlign=middle;resizable=0;points=[];" vertex="1" connectable="0" parent="ni58W3g7qlgSycT5b25J-49">
          <mxGeometry x="0.2121" y="17" relative="1" as="geometry">
            <mxPoint as="offset" />
          </mxGeometry>
        </mxCell>
        <mxCell id="ni58W3g7qlgSycT5b25J-58" style="edgeStyle=orthogonalEdgeStyle;rounded=0;orthogonalLoop=1;jettySize=auto;html=1;exitX=0;exitY=1;exitDx=0;exitDy=0;entryX=0.5;entryY=0;entryDx=0;entryDy=0;curved=1;" edge="1" parent="1" source="ni58W3g7qlgSycT5b25J-52" target="ni58W3g7qlgSycT5b25J-57">
          <mxGeometry relative="1" as="geometry" />
        </mxCell>
        <mxCell id="ni58W3g7qlgSycT5b25J-59" value="=" style="edgeLabel;html=1;align=center;verticalAlign=middle;resizable=0;points=[];" vertex="1" connectable="0" parent="ni58W3g7qlgSycT5b25J-58">
          <mxGeometry x="0.0542" y="3" relative="1" as="geometry">
            <mxPoint as="offset" />
          </mxGeometry>
        </mxCell>
        <mxCell id="ni58W3g7qlgSycT5b25J-100" style="edgeStyle=orthogonalEdgeStyle;rounded=0;orthogonalLoop=1;jettySize=auto;html=1;exitX=0;exitY=1;exitDx=0;exitDy=0;entryX=1;entryY=0;entryDx=0;entryDy=0;curved=1;" edge="1" parent="1" source="ni58W3g7qlgSycT5b25J-52" target="ni58W3g7qlgSycT5b25J-99">
          <mxGeometry relative="1" as="geometry" />
        </mxCell>
        <mxCell id="ni58W3g7qlgSycT5b25J-101" value="&amp;amp;" style="edgeLabel;html=1;align=center;verticalAlign=middle;resizable=0;points=[];" vertex="1" connectable="0" parent="ni58W3g7qlgSycT5b25J-100">
          <mxGeometry x="-0.0101" y="3" relative="1" as="geometry">
            <mxPoint as="offset" />
          </mxGeometry>
        </mxCell>
        <mxCell id="ni58W3g7qlgSycT5b25J-52" value="q16&lt;div&gt;ampersand&lt;/div&gt;" style="ellipse;whiteSpace=wrap;html=1;aspect=fixed;strokeColor=#00FF00;" vertex="1" parent="1">
          <mxGeometry x="-135" y="422.33" width="80" height="80" as="geometry" />
        </mxCell>
        <mxCell id="ni58W3g7qlgSycT5b25J-57" value="q17&lt;div&gt;ampersand_equal&lt;/div&gt;" style="ellipse;whiteSpace=wrap;html=1;aspect=fixed;strokeColor=#00FF00;" vertex="1" parent="1">
          <mxGeometry x="-215" y="567" width="80" height="80" as="geometry" />
        </mxCell>
        <mxCell id="ni58W3g7qlgSycT5b25J-60" value="q18&lt;div&gt;open_parentheses&lt;/div&gt;" style="ellipse;whiteSpace=wrap;html=1;aspect=fixed;strokeColor=#00FF00;" vertex="1" parent="1">
          <mxGeometry x="-228" y="395" width="80" height="80" as="geometry" />
        </mxCell>
        <mxCell id="ni58W3g7qlgSycT5b25J-63" value="q19&lt;div&gt;close_parentheses&lt;/div&gt;" style="ellipse;whiteSpace=wrap;html=1;aspect=fixed;strokeColor=#00FF00;" vertex="1" parent="1">
          <mxGeometry x="-315" y="358" width="80" height="80" as="geometry" />
        </mxCell>
        <mxCell id="ni58W3g7qlgSycT5b25J-64" style="edgeStyle=orthogonalEdgeStyle;rounded=0;orthogonalLoop=1;jettySize=auto;html=1;exitX=0;exitY=1;exitDx=0;exitDy=0;entryX=1.01;entryY=0.376;entryDx=0;entryDy=0;entryPerimeter=0;curved=1;" edge="1" parent="1" source="ni58W3g7qlgSycT5b25J-9" target="ni58W3g7qlgSycT5b25J-63">
          <mxGeometry relative="1" as="geometry">
            <Array as="points">
              <mxPoint x="-54" y="424" />
              <mxPoint x="-54" y="388" />
            </Array>
          </mxGeometry>
        </mxCell>
        <mxCell id="ni58W3g7qlgSycT5b25J-65" value=")" style="edgeLabel;html=1;align=center;verticalAlign=middle;resizable=0;points=[];" vertex="1" connectable="0" parent="ni58W3g7qlgSycT5b25J-64">
          <mxGeometry x="0.1141" y="4" relative="1" as="geometry">
            <mxPoint as="offset" />
          </mxGeometry>
        </mxCell>
        <mxCell id="ni58W3g7qlgSycT5b25J-66" value="q20&lt;div&gt;open_square_brackets&lt;/div&gt;" style="ellipse;whiteSpace=wrap;html=1;aspect=fixed;strokeColor=#00FF00;" vertex="1" parent="1">
          <mxGeometry x="-252" y="288" width="80" height="80" as="geometry" />
        </mxCell>
        <mxCell id="ni58W3g7qlgSycT5b25J-71" value="q21&lt;div&gt;close_square_brackets&lt;/div&gt;" style="ellipse;whiteSpace=wrap;html=1;aspect=fixed;strokeColor=#00FF00;" vertex="1" parent="1">
          <mxGeometry x="-155" y="270" width="80" height="80" as="geometry" />
        </mxCell>
        <mxCell id="ni58W3g7qlgSycT5b25J-74" value="q22&lt;div&gt;open_curly_brackets&lt;/div&gt;" style="ellipse;whiteSpace=wrap;html=1;aspect=fixed;strokeColor=#00FF00;" vertex="1" parent="1">
          <mxGeometry x="-222" y="208" width="80" height="80" as="geometry" />
        </mxCell>
        <mxCell id="ni58W3g7qlgSycT5b25J-78" value="q23&lt;div&gt;close_curly_brackets&lt;/div&gt;" style="ellipse;whiteSpace=wrap;html=1;aspect=fixed;strokeColor=#00FF00;" vertex="1" parent="1">
          <mxGeometry x="-138" y="159" width="80" height="80" as="geometry" />
        </mxCell>
        <mxCell id="ni58W3g7qlgSycT5b25J-88" style="edgeStyle=orthogonalEdgeStyle;rounded=0;orthogonalLoop=1;jettySize=auto;html=1;exitX=0;exitY=0.5;exitDx=0;exitDy=0;entryX=1;entryY=0.5;entryDx=0;entryDy=0;curved=1;" edge="1" parent="1" source="ni58W3g7qlgSycT5b25J-82" target="ni58W3g7qlgSycT5b25J-87">
          <mxGeometry relative="1" as="geometry" />
        </mxCell>
        <mxCell id="ni58W3g7qlgSycT5b25J-91" value="=" style="edgeLabel;html=1;align=center;verticalAlign=middle;resizable=0;points=[];" vertex="1" connectable="0" parent="ni58W3g7qlgSycT5b25J-88">
          <mxGeometry x="-0.1565" y="-1" relative="1" as="geometry">
            <mxPoint as="offset" />
          </mxGeometry>
        </mxCell>
        <mxCell id="ni58W3g7qlgSycT5b25J-103" style="edgeStyle=orthogonalEdgeStyle;rounded=0;orthogonalLoop=1;jettySize=auto;html=1;exitX=0;exitY=0;exitDx=0;exitDy=0;entryX=1;entryY=1;entryDx=0;entryDy=0;curved=1;" edge="1" parent="1" source="ni58W3g7qlgSycT5b25J-82" target="ni58W3g7qlgSycT5b25J-102">
          <mxGeometry relative="1" as="geometry" />
        </mxCell>
        <mxCell id="ni58W3g7qlgSycT5b25J-105" value="|" style="edgeLabel;html=1;align=center;verticalAlign=middle;resizable=0;points=[];" vertex="1" connectable="0" parent="ni58W3g7qlgSycT5b25J-103">
          <mxGeometry x="-0.2153" y="-6" relative="1" as="geometry">
            <mxPoint x="1" as="offset" />
          </mxGeometry>
        </mxCell>
        <mxCell id="ni58W3g7qlgSycT5b25J-82" value="q24&lt;div&gt;pipe&lt;/div&gt;" style="ellipse;whiteSpace=wrap;html=1;aspect=fixed;strokeColor=#00FF00;" vertex="1" parent="1">
          <mxGeometry x="-91" y="84" width="80" height="80" as="geometry" />
        </mxCell>
        <mxCell id="ni58W3g7qlgSycT5b25J-87" value="q25&lt;div&gt;pipe_equal&lt;/div&gt;" style="ellipse;whiteSpace=wrap;html=1;aspect=fixed;strokeColor=#00FF00;" vertex="1" parent="1">
          <mxGeometry x="-232" y="84" width="80" height="80" as="geometry" />
        </mxCell>
        <mxCell id="ni58W3g7qlgSycT5b25J-92" value="q26&lt;div&gt;question_mark&lt;/div&gt;" style="ellipse;whiteSpace=wrap;html=1;aspect=fixed;strokeColor=#00FF00;" vertex="1" parent="1">
          <mxGeometry x="-36" y="153" width="80" height="80" as="geometry" />
        </mxCell>
        <mxCell id="ni58W3g7qlgSycT5b25J-95" value="q27&lt;div&gt;colon&lt;/div&gt;" style="ellipse;whiteSpace=wrap;html=1;aspect=fixed;strokeColor=#00FF00;" vertex="1" parent="1">
          <mxGeometry x="-1" y="236" width="80" height="80" as="geometry" />
        </mxCell>
        <mxCell id="ni58W3g7qlgSycT5b25J-99" value="q28&lt;div&gt;AND&lt;/div&gt;" style="ellipse;whiteSpace=wrap;html=1;aspect=fixed;strokeColor=#00FF00;" vertex="1" parent="1">
          <mxGeometry x="-276" y="487" width="80" height="80" as="geometry" />
        </mxCell>
        <mxCell id="ni58W3g7qlgSycT5b25J-102" value="q29&lt;div&gt;OR&lt;/div&gt;" style="ellipse;whiteSpace=wrap;html=1;aspect=fixed;strokeColor=#00FF00;" vertex="1" parent="1">
          <mxGeometry x="-198" y="-13" width="80" height="80" as="geometry" />
        </mxCell>
        <mxCell id="ni58W3g7qlgSycT5b25J-114" style="edgeStyle=orthogonalEdgeStyle;rounded=0;orthogonalLoop=1;jettySize=auto;html=1;exitX=0.5;exitY=0;exitDx=0;exitDy=0;entryX=0.5;entryY=1;entryDx=0;entryDy=0;" edge="1" parent="1" source="ni58W3g7qlgSycT5b25J-110" target="ni58W3g7qlgSycT5b25J-113">
          <mxGeometry relative="1" as="geometry" />
        </mxCell>
        <mxCell id="ni58W3g7qlgSycT5b25J-116" value="=" style="edgeLabel;html=1;align=center;verticalAlign=middle;resizable=0;points=[];" vertex="1" connectable="0" parent="ni58W3g7qlgSycT5b25J-114">
          <mxGeometry x="-0.1176" relative="1" as="geometry">
            <mxPoint as="offset" />
          </mxGeometry>
        </mxCell>
        <mxCell id="ni58W3g7qlgSycT5b25J-110" value="q30&lt;div&gt;xor&lt;/div&gt;" style="ellipse;whiteSpace=wrap;html=1;aspect=fixed;strokeColor=#00FF00;" vertex="1" parent="1">
          <mxGeometry x="95" y="228" width="80" height="80" as="geometry" />
        </mxCell>
        <mxCell id="ni58W3g7qlgSycT5b25J-113" value="q31&lt;div&gt;xor_equal&lt;/div&gt;" style="ellipse;whiteSpace=wrap;html=1;aspect=fixed;strokeColor=#00FF00;" vertex="1" parent="1">
          <mxGeometry x="95" y="84" width="80" height="80" as="geometry" />
        </mxCell>
      </root>
    </mxGraphModel>
  </diagram>
</mxfile>
